# xmcd
#
# Track frame offsets:
#	183
#	26013
#	46440
#	67955
#	92795
#	117285
#	136593
#	164105
#	202500
#	233258
#	257793
#	283538
#
# Disc length: 4178 seconds
#
# Revision: 0
# Processed by: cddbd v1.5.1PL0 Copyright (c) Steve Scherf et al.
# Submitted via: MusicWizard 7.0.2
#
DISCID=9a10500c
DTITLE=Various Artist - Texas Harmonica Rumble Vol 2
DYEAR=1900
DGENRE=Blues
TTITLE0=Ted Roddy - Honky Tonk Rythm
TTITLE1=Ted Roddy - E. Z. Glide
TTITLE2=Mark Hummel - In Your Town
TTITLE3=Mark Hummel - Rollin' From Side To Side
TTITLE4=Big Al Blake - Going To California
TTITLE5=Big Al Blake - Let Me Love You
TTITLE6=Little Hatch - So Tired
TTITLE7=Little Hatch - Can't You See What You Are Doing To Me
TTITLE8=Jumpin' Johnny Sansone - Sad To Be Alone
TTITLE9=Jumpin' Johnny Sansone - My Back Scratcher
TTITLE10=Ron Sorin - Lake Side
TTITLE11=Ron Sorin - After A While
EXTD=
EXTT0=
EXTT1=
EXTT2=
EXTT3=
EXTT4=
EXTT5=
EXTT6=
EXTT7=
EXTT8=
EXTT9=
EXTT10=
EXTT11=
PLAYORDER=
